<?xml version="1.0" encoding="utf-8"?>
<!-- Generator: Adobe Illustrator 16.0.0, SVG Export Plug-In . SVG Version: 6.00 Build 0)  -->
<!DOCTYPE svg PUBLIC "-//W3C//DTD SVG 1.1//EN" "http://www.w3.org/Graphics/SVG/1.1/DTD/svg11.dtd">
<svg version="1.1" id="Layer_1" xmlns="http://www.w3.org/2000/svg" xmlns:xlink="http://www.w3.org/1999/xlink" x="0px" y="0px"
	 width="251.588px" height="120.101px" viewBox="0 0 251.588 120.101" style="enable-background:new 0 0 251.588 120.101;"
	 xml:space="preserve">
<style type="text/css">
<![CDATA[
	.st0{fill:#FFFFFF;}
]]>
</style>
<g>
	<path class="st0" d="M89.542,36.835c0.98,1.023,2.205,1.566,3.544,1.566c3.659,0,6.796-4.389,6.796-7.979
		c0-2.798-1.813-4.47-4.85-4.47c-1.13,0-2.293,0.425-3.583,1.327c-1.13,0.932-3.379,4.225-3.379,6.104
		C88.07,34.661,88.569,35.823,89.542,36.835z"/>
	<path class="st0" d="M244.41,55.455c-0.812,0-1.581,0.446-2.585,1.503c-0.859,0.986-1.97,1.983-3.293,2.958
		c-1.373,1.016-3.003,2.056-4.838,3.097c-3.964,2.159-7.256,3.254-9.782,3.254c-2.623,0-3.646-1.135-3.646-4.061
		c0-0.581,0.037-1.148,0.113-1.688c4.84-1.397,8.644-3.769,11.318-7.067c1.738-2.257,2.623-4.46,2.623-6.55
		c0-3.74-2.265-5.977-6.063-5.977c-2.628,0-5.373,1.347-8.142,3.995c-2.33,2.2-4.268,4.979-5.765,8.235
		c-0.655,1.333-1.187,2.666-1.583,3.97c-1.175,1.218-2.2,2.25-3.042,3.071c-0.92,0.892-1.595,1.528-1.972,1.858
		c-2.235,1.794-4.198,2.707-5.844,2.707c-0.653,0-2.008,0-2.008-3.724c0-2.633,0.696-6.323,2.082-10.997
		c0.066-0.27,0.113-0.503,0.154-0.722c0.042-0.267,0.063-0.522,0.063-0.788c0-1.648-1.102-2.798-2.672-2.798
		c-1.828,0-3.455,0.927-4.835,2.755c-2.96,3.967-5.31,7.168-7.151,9.743l0.019-0.533c0.062-1.561,0.083-2.29,0.08-2.528
		c-0.579-5.665-4.17-6.509-6.264-6.509c-1.106,0-2.14,0.244-3.207,0.777l0.82-2.54c0.054-0.175,0.087-0.357,0.087-0.542
		c0-1.804-1.028-2.925-2.677-2.925c-0.755,0-1.617,0.229-2.57,0.684c-2.463,1.213-3.151,1.8-3.503,2.406
		c-0.155,0.27-0.235,0.573-0.235,0.882c0,0.335-0.251,2.017-3.462,9.439c-0.943,2.247-1.763,4.153-2.456,5.722l-1.049,2.374
		c-0.727-0.184-1.495-0.344-2.361-0.45c-1.077-0.15-2.276-0.182-3.59-0.094c1.023-4.26,1.833-7.861,2.406-10.706
		c0.703-3.506,1.101-5.954,1.214-7.469c0.086-0.75-0.096-1.333-0.344-1.762c1.424-0.267,2.014-1.05,2.26-1.678
		c0.577-1.469-0.458-2.836-0.67-3.096c-0.33-0.406-0.826-0.644-1.354-0.644c-6.256,0-12.5,2.405-18.553,7.144
		c-4.562,3.537-7.66,6.879-9.474,10.214c-0.024,0.02-0.053,0.036-0.076,0.053c-0.112,0.077-0.221,0.153-0.344,0.277
		c-1.354,1.406-2.493,2.568-3.417,3.477c-0.939,0.925-1.569,1.512-1.981,1.85c-2.233,1.799-4.198,2.707-5.842,2.707
		c-0.486,0-1.385,0-1.385-2.891c0-2.439,0.945-6.883,2.809-13.21c0.22-0.727,0.326-1.333,0.326-1.843
		c0-1.811-1.213-2.634-2.336-2.634c-1.311,0-2.682,0.86-4.304,2.702c-2.477,2.708-4.827,5.248-7.05,7.632
		c1.347-3.104,2.35-5.66,2.986-7.62c0.054-0.175,0.083-0.357,0.083-0.542c0-1.805-1.026-2.925-2.675-2.925
		c-0.753,0-1.618,0.229-2.569,0.684c-2.462,1.213-3.148,1.8-3.502,2.406c-0.153,0.265-0.238,0.57-0.238,0.882
		c0,0.225-0.153,1.703-3.152,8.72c-0.354,0.247-0.683,0.521-0.937,0.788c-5.06,5.434-9.216,8.184-12.35,8.184
		c-0.79,0-2.262,0-2.262-3.894c0-0.825,0.082-1.727,0.238-2.687c0.089-0.668,0.3-1.423,0.627-2.257
		c0.356-0.913,0.826-1.937,1.38-3.024c0.137-0.238,0.49-0.822,1.068-1.745c0.661-1.065,1.468-2.514,2.491-4.487
		c0.184-0.55,0.259-0.904,0.259-1.229c0-0.481-0.182-2.884-3.802-2.884c-2.43,0-4.156,0.754-5.127,2.233
		c-2.687,3.954-4.387,7.674-5.048,11.054c-0.292,0.217-0.572,0.458-0.851,0.74c-1.42,1.524-2.788,2.84-4.064,3.903
		c-1.267,1.057-2.492,1.939-3.635,2.626c-2.648,1.511-4.164,1.825-4.969,1.825c-0.606,0-1.858,0-1.858-3.648
		c0-4.272,1.238-8.738,3.686-13.267c12.595-10.866,20.363-20.637,23.086-29.013c0.66-1.726,0.993-3.384,0.993-4.932
		c0-3.882-2.09-6.105-5.75-6.103c-5.177,0.193-10.896,6.237-17.486,18.471c-2.46,4.475-4.55,8.691-6.2,12.531
		c-1.653,3.842-2.965,7.419-3.906,10.646c-0.773,2.818-1.312,5.216-1.642,7.257c-11.565,7.174-22.7,8.722-25.896,8.722
		c-8.467,0-12.583-3.938-12.583-12.052c0-2.546,0.474-5.274,1.405-8.111c0.937-2.847,2.208-5.736,3.774-8.59
		c1.563-2.845,3.499-5.665,5.761-8.384c2.258-2.71,4.847-5.173,7.694-7.324c4.415-3.382,8.771-5.089,12.955-5.089
		c2.577,0,4.033,0.85,4.432,2.613c-1.812,0.533-3.585,1.264-5.408,2.236c-7.747,4.131-7.809,7.862-7.47,9.275
		c0.484,2.048,2.59,3.495,5.435,3.509c1.924,0.013,5.73-1.097,9.059-4.426c5.233-5.234,6.451-12.401,6.503-15.541
		c0.107-6.855-4.505-10.521-12.126-10.521c-9.022,0-18.58,5.844-28.4,17.358C9.969,31.758,5.433,42.946,5.089,51.933
		c-0.606,15.631,7.988,22.473,19.563,22.244c10.27-0.2,20.182-4.495,29.082-10.533c0.966,6.251,5.762,7.063,7.953,7.093l0.387,0.005
		c4.295,0,9.019-2.45,14.421-7.483c0.384,2.085,1.105,3.688,2.197,4.882c1.52,1.665,3.648,2.538,6.335,2.597l0.382,0.005
		c3.09,0,6.38-1.265,10.026-3.863c-0.1,0.868,0.247,1.752,1.032,2.63c1.034,1.153,2.133,1.394,2.869,1.394
		c1.257,0,2.304-0.655,2.75-1.713l1.181-1.554c0.421-0.562,0.853-1.11,1.302-1.677c0.545-0.696,1.13-1.375,1.739-2.012
		c0.646-0.67,1.334-1.345,2.04-1.998c1.247-1.15,2.34-2.184,3.287-3.099c0,0.062,0,0.12,0,0.181c0,9.188,4.229,11.118,7.776,11.118
		c3.62,0,7.424-1.714,11.61-5.235c0.63,3.658,3.043,4.552,4.606,4.735c-7.61,2.312-14.19,4.701-19.651,7.142
		c-8.59,3.843-15.249,8.211-19.789,12.979c-4.286,4.499-6.463,9.028-6.463,13.464c0,3.944,1.47,7.208,4.377,9.693
		c2.823,2.415,6.642,3.643,11.343,3.643c5.907,0,12.021-1.564,18.153-4.647c5.627-2.693,10.71-6.36,15.115-10.884
		c7.705-7.7,13.367-17.95,16.833-30.474c0.712-0.085,1.362-0.161,1.955-0.213l2.142-0.203c2.363,0,3.891,0.411,3.891,1.048
		c0,0.205-0.125,0.8-1.29,1.858c-0.695,0.703-0.844,1.425-0.844,1.903c0,1.264,0.969,2.219,2.255,2.219
		c0.434,0,1.264-0.115,1.907-0.852c2.063-1.924,3.106-3.877,3.106-5.797c0-0.487-0.07-0.937-0.184-1.365
		c0.539-0.788,1.29-2.025,2.417-4.042c1.86-3.272,3.531-5.659,4.97-7.1c1.839-1.927,2.896-2.651,3.402-2.952
		c0.173,0.542,0.425,1.898,0.276,5.035l-0.167,2.252c-0.059,0.762-0.155,1.582-0.297,2.535l-0.205,2.463
		c-0.223,0.917-0.109,1.807,0.32,2.5c0.392,0.637,1.04,1.087,1.75,1.247c0.413,0.17,0.844,0.258,1.275,0.258
		c1.278,0,2.461-0.701,3.75-2.243l5.045-7.608c0.238-0.293,0.467-0.571,0.68-0.838c0.28,3.672,1.212,6.298,2.84,8.012
		c1.347,1.417,3.112,2.14,5.235,2.14c3.727,0,7.837-2.04,12.548-6.231c1.167,6.059,5.721,7.358,9.412,7.358
		c3.946,0,8.554-1.361,13.685-4.043c4.695-2.421,8.094-4.98,10.426-7.867c0.46-0.738,0.682-1.423,0.682-2.097
		C246.529,55.975,245.146,55.455,244.41,55.455z M224.808,49.753c1.531-2.045,2.948-2.445,3.597-2.712
		c0.323,0.73,0.028,2.29-0.732,3.301c-0.885,1.18-4.693,4.395-6.546,5.689C221.672,54.725,223.851,51.066,224.808,49.753z
		 M79.377,18.019c1.669-3.011,2.806-3.844,3.352-4.074c0.007,0.084,0.012,0.181,0.012,0.297c0,0.812-0.278,2.033-0.805,3.516
		c-1.408,3.698-4.155,8.208-8.173,13.418c-1.176,1.583-2.382,3.106-3.596,4.557C72.961,29.688,76.053,23.746,79.377,18.019z
		 M129.876,101.081c-6.997,6.177-14.204,9.304-21.42,9.304c-3.219,0-5.78-0.703-7.622-2.094c-1.712-1.29-2.543-3.055-2.543-5.393
		c0-3.101,1.478-6.437,4.401-9.92c1.703-2.042,3.856-3.967,6.401-5.722c2.602-1.792,5.613-3.479,8.962-5.014
		c2.435-1.125,5.106-2.217,7.939-3.252c2.811-1.026,5.978-2.104,9.417-3.194c2.715-0.858,6.469-1.959,11.167-3.272
		C143.304,84.533,137.688,94.14,129.876,101.081z M148.07,66.175c-1.896,0.486-3.743,0.98-5.546,1.479
		c0.694-0.434,1.406-0.93,2.133-1.502c0.658-0.542,1.492-1.276,2.557-2.257c0.497-0.455,1.05-0.979,1.651-1.557L148.07,66.175z
		 M150.846,50.694c-0.601,2.144-1.285,3.764-1.97,4.676c-2.04,2.498-4.631,4.432-7.71,5.753c-1.46,0.685-2.124,0.842-2.478,0.856
		c0-0.029-0.001-0.066-0.001-0.108c0-1.736,1.16-4.913,6.687-10.182c1.934-1.826,4.008-3.328,6.168-4.468
		C151.396,48.291,151.16,49.462,150.846,50.694z"/>
</g>
</svg>
